<mxfile host="app.diagrams.net" modified="2020-12-13T05:13:27.172Z" agent="5.0 (Macintosh; Intel Mac OS X 10_13_6) AppleWebKit/605.1.15 (KHTML, like Gecko) Version/13.1.2 Safari/605.1.15" etag="5C1RzG99moxoVbefqjlR" version="14.0.1" type="github">
  <diagram id="t2BPwWuNXZpCWhiWxuIB" name="Page-1">
    <mxGraphModel dx="786" dy="473" grid="1" gridSize="10" guides="1" tooltips="1" connect="1" arrows="1" fold="1" page="1" pageScale="1" pageWidth="850" pageHeight="1100" math="0" shadow="0">
      <root>
        <mxCell id="0" />
        <mxCell id="1" parent="0" />
        <mxCell id="UACaE1ipDpJofEdPLr0a-1" value="User&lt;br&gt;&lt;br&gt;" style="shape=umlLifeline;participant=umlActor;perimeter=lifelinePerimeter;whiteSpace=wrap;html=1;container=1;collapsible=0;recursiveResize=0;verticalAlign=top;spacingTop=36;labelBackgroundColor=#ffffff;outlineConnect=0;size=50;" vertex="1" parent="1">
          <mxGeometry x="30" y="30" width="20" height="650" as="geometry" />
        </mxCell>
        <mxCell id="UACaE1ipDpJofEdPLr0a-2" value="" style="html=1;points=[];perimeter=orthogonalPerimeter;" vertex="1" parent="UACaE1ipDpJofEdPLr0a-1">
          <mxGeometry x="10" y="360" width="10" height="160" as="geometry" />
        </mxCell>
        <mxCell id="UACaE1ipDpJofEdPLr0a-4" value="" style="html=1;points=[];perimeter=orthogonalPerimeter;" vertex="1" parent="UACaE1ipDpJofEdPLr0a-1">
          <mxGeometry x="10" y="80" width="10" height="180" as="geometry" />
        </mxCell>
        <mxCell id="UACaE1ipDpJofEdPLr0a-5" value="&lt;font style=&quot;font-size: 14px&quot;&gt;&lt;br&gt;صفحه نمایش&lt;br&gt;&lt;/font&gt;&lt;br&gt;" style="shape=umlLifeline;perimeter=lifelinePerimeter;whiteSpace=wrap;html=1;container=1;collapsible=0;recursiveResize=0;outlineConnect=0;" vertex="1" parent="1">
          <mxGeometry x="290" y="30" width="100" height="650" as="geometry" />
        </mxCell>
        <mxCell id="UACaE1ipDpJofEdPLr0a-6" value="" style="html=1;points=[];perimeter=orthogonalPerimeter;" vertex="1" parent="UACaE1ipDpJofEdPLr0a-5">
          <mxGeometry x="45" y="80" width="10" height="80" as="geometry" />
        </mxCell>
        <mxCell id="UACaE1ipDpJofEdPLr0a-7" value="" style="html=1;points=[];perimeter=orthogonalPerimeter;" vertex="1" parent="UACaE1ipDpJofEdPLr0a-5">
          <mxGeometry x="48" y="140" width="10" height="10" as="geometry" />
        </mxCell>
        <mxCell id="UACaE1ipDpJofEdPLr0a-8" value="" style="html=1;points=[];perimeter=orthogonalPerimeter;" vertex="1" parent="UACaE1ipDpJofEdPLr0a-5">
          <mxGeometry x="45" y="210" width="10" height="90" as="geometry" />
        </mxCell>
        <mxCell id="UACaE1ipDpJofEdPLr0a-9" value="" style="html=1;points=[];perimeter=orthogonalPerimeter;" vertex="1" parent="UACaE1ipDpJofEdPLr0a-5">
          <mxGeometry x="45" y="360" width="10" height="80" as="geometry" />
        </mxCell>
        <mxCell id="UACaE1ipDpJofEdPLr0a-10" value="" style="html=1;points=[];perimeter=orthogonalPerimeter;" vertex="1" parent="UACaE1ipDpJofEdPLr0a-5">
          <mxGeometry x="45" y="480" width="10" height="90" as="geometry" />
        </mxCell>
        <mxCell id="UACaE1ipDpJofEdPLr0a-11" value="user" style="shape=umlLifeline;perimeter=lifelinePerimeter;whiteSpace=wrap;html=1;container=1;collapsible=0;recursiveResize=0;outlineConnect=0;" vertex="1" parent="1">
          <mxGeometry x="570" y="30" width="100" height="640" as="geometry" />
        </mxCell>
        <mxCell id="UACaE1ipDpJofEdPLr0a-12" value="" style="html=1;points=[];perimeter=orthogonalPerimeter;" vertex="1" parent="UACaE1ipDpJofEdPLr0a-11">
          <mxGeometry x="45" y="250" width="10" height="40" as="geometry" />
        </mxCell>
        <mxCell id="UACaE1ipDpJofEdPLr0a-13" value="&lt;font style=&quot;font-size: 12px&quot;&gt;درخواست ثبت نام&lt;/font&gt;" style="html=1;verticalAlign=bottom;startArrow=oval;endArrow=block;startSize=8;" edge="1" parent="1" target="UACaE1ipDpJofEdPLr0a-6">
          <mxGeometry relative="1" as="geometry">
            <mxPoint x="50" y="110" as="sourcePoint" />
          </mxGeometry>
        </mxCell>
        <mxCell id="UACaE1ipDpJofEdPLr0a-14" value="&lt;font style=&quot;font-size: 12px&quot;&gt;صفحه ی ثبت نام باز می شود&lt;/font&gt;" style="edgeStyle=orthogonalEdgeStyle;html=1;align=left;spacingLeft=2;endArrow=block;rounded=0;entryX=1;entryY=0;" edge="1" parent="1" target="UACaE1ipDpJofEdPLr0a-7">
          <mxGeometry relative="1" as="geometry">
            <mxPoint x="342.5" y="130" as="sourcePoint" />
            <Array as="points">
              <mxPoint x="367.5" y="130" />
            </Array>
          </mxGeometry>
        </mxCell>
        <mxCell id="UACaE1ipDpJofEdPLr0a-15" value="&lt;font style=&quot;font-size: 12px&quot;&gt;وارد کردن اطلاعات&lt;/font&gt;" style="html=1;verticalAlign=bottom;startArrow=oval;startFill=1;endArrow=block;startSize=8;exitX=1.2;exitY=0.367;exitDx=0;exitDy=0;exitPerimeter=0;" edge="1" parent="1" target="UACaE1ipDpJofEdPLr0a-6" source="UACaE1ipDpJofEdPLr0a-4">
          <mxGeometry width="60" relative="1" as="geometry">
            <mxPoint x="140" y="180" as="sourcePoint" />
            <mxPoint x="210" y="180.5" as="targetPoint" />
          </mxGeometry>
        </mxCell>
        <mxCell id="UACaE1ipDpJofEdPLr0a-16" value="&lt;div style=&quot;text-align: left&quot;&gt;&lt;font style=&quot;font-size: 12px&quot;&gt;&amp;nbsp;sign up کلیک کردن دکمه&amp;nbsp;&lt;/font&gt;&lt;/div&gt;" style="html=1;verticalAlign=bottom;startArrow=oval;endArrow=block;startSize=8;exitX=1.2;exitY=0.722;exitDx=0;exitDy=0;exitPerimeter=0;" edge="1" parent="1" target="UACaE1ipDpJofEdPLr0a-8" source="UACaE1ipDpJofEdPLr0a-4">
          <mxGeometry relative="1" as="geometry">
            <mxPoint x="140" y="240" as="sourcePoint" />
          </mxGeometry>
        </mxCell>
        <mxCell id="UACaE1ipDpJofEdPLr0a-17" value="&lt;font style=&quot;font-size: 12px&quot;&gt;ثبت در پایگاه داده&lt;/font&gt;" style="html=1;verticalAlign=bottom;endArrow=block;entryX=0;entryY=0;" edge="1" parent="1" source="UACaE1ipDpJofEdPLr0a-8" target="UACaE1ipDpJofEdPLr0a-12">
          <mxGeometry relative="1" as="geometry">
            <mxPoint x="545" y="280" as="sourcePoint" />
          </mxGeometry>
        </mxCell>
        <mxCell id="UACaE1ipDpJofEdPLr0a-18" value="&lt;font style=&quot;font-size: 12px&quot;&gt;نمایش موفقیت ثبت نام&lt;/font&gt;" style="html=1;verticalAlign=bottom;endArrow=open;dashed=1;endSize=8;exitX=0;exitY=0.95;" edge="1" parent="1" source="UACaE1ipDpJofEdPLr0a-12" target="UACaE1ipDpJofEdPLr0a-8">
          <mxGeometry relative="1" as="geometry">
            <mxPoint x="545" y="356" as="targetPoint" />
          </mxGeometry>
        </mxCell>
        <mxCell id="UACaE1ipDpJofEdPLr0a-19" value="&lt;font style=&quot;font-size: 12px&quot;&gt;درخواست ورود&lt;/font&gt;" style="html=1;verticalAlign=bottom;startArrow=oval;endArrow=block;startSize=8;exitX=1;exitY=0.092;exitDx=0;exitDy=0;exitPerimeter=0;entryX=0;entryY=0.163;entryDx=0;entryDy=0;entryPerimeter=0;" edge="1" parent="1" source="UACaE1ipDpJofEdPLr0a-2" target="UACaE1ipDpJofEdPLr0a-9">
          <mxGeometry relative="1" as="geometry">
            <mxPoint x="275" y="390" as="sourcePoint" />
          </mxGeometry>
        </mxCell>
        <mxCell id="UACaE1ipDpJofEdPLr0a-20" value="" style="html=1;points=[];perimeter=orthogonalPerimeter;" vertex="1" parent="1">
          <mxGeometry x="340" y="450" width="10" height="10" as="geometry" />
        </mxCell>
        <mxCell id="UACaE1ipDpJofEdPLr0a-21" value="&lt;font style=&quot;font-size: 12px&quot;&gt;صفحه ورود باز می شود&lt;/font&gt;" style="edgeStyle=orthogonalEdgeStyle;html=1;align=left;spacingLeft=2;endArrow=block;rounded=0;entryX=1;entryY=0;" edge="1" parent="1" target="UACaE1ipDpJofEdPLr0a-20">
          <mxGeometry relative="1" as="geometry">
            <mxPoint x="345" y="410" as="sourcePoint" />
            <Array as="points">
              <mxPoint x="370" y="410" />
            </Array>
          </mxGeometry>
        </mxCell>
        <mxCell id="UACaE1ipDpJofEdPLr0a-22" value="&lt;div style=&quot;text-align: center&quot;&gt;&lt;font style=&quot;font-size: 12px&quot;&gt;&amp;nbsp;usernameو passwordوارد کردن&amp;nbsp;&lt;/font&gt;&lt;/div&gt;" style="html=1;verticalAlign=bottom;startArrow=oval;startFill=1;endArrow=block;startSize=8;entryX=0.2;entryY=0.925;entryDx=0;entryDy=0;entryPerimeter=0;" edge="1" parent="1" target="UACaE1ipDpJofEdPLr0a-9">
          <mxGeometry width="60" relative="1" as="geometry">
            <mxPoint x="52" y="464" as="sourcePoint" />
            <mxPoint x="110" y="459.5" as="targetPoint" />
          </mxGeometry>
        </mxCell>
        <mxCell id="UACaE1ipDpJofEdPLr0a-23" value="&lt;font style=&quot;font-size: 12px&quot;&gt;&amp;nbsp;Log in کلیک کردن دکمه&amp;nbsp;&lt;/font&gt;" style="html=1;verticalAlign=bottom;startArrow=oval;endArrow=block;startSize=8;exitX=1.2;exitY=0.769;exitDx=0;exitDy=0;exitPerimeter=0;" edge="1" parent="1" source="UACaE1ipDpJofEdPLr0a-2" target="UACaE1ipDpJofEdPLr0a-10">
          <mxGeometry relative="1" as="geometry">
            <mxPoint x="275" y="510" as="sourcePoint" />
          </mxGeometry>
        </mxCell>
        <mxCell id="UACaE1ipDpJofEdPLr0a-24" value="" style="html=1;points=[];perimeter=orthogonalPerimeter;" vertex="1" parent="1">
          <mxGeometry x="615" y="540" width="10" height="40" as="geometry" />
        </mxCell>
        <mxCell id="UACaE1ipDpJofEdPLr0a-25" value="&lt;font style=&quot;font-size: 12px&quot;&gt;جستجو در پایگاه داده&lt;/font&gt;" style="html=1;verticalAlign=bottom;endArrow=block;entryX=0;entryY=0;" edge="1" parent="1" source="UACaE1ipDpJofEdPLr0a-10" target="UACaE1ipDpJofEdPLr0a-24">
          <mxGeometry relative="1" as="geometry">
            <mxPoint x="545" y="540" as="sourcePoint" />
          </mxGeometry>
        </mxCell>
        <mxCell id="UACaE1ipDpJofEdPLr0a-26" value="&lt;font style=&quot;font-size: 12px&quot;&gt;برگرداندن پاسخ جستجو&lt;/font&gt;" style="html=1;verticalAlign=bottom;endArrow=open;dashed=1;endSize=8;exitX=0;exitY=0.95;" edge="1" parent="1" source="UACaE1ipDpJofEdPLr0a-24" target="UACaE1ipDpJofEdPLr0a-10">
          <mxGeometry relative="1" as="geometry">
            <mxPoint x="545" y="616" as="targetPoint" />
          </mxGeometry>
        </mxCell>
      </root>
    </mxGraphModel>
  </diagram>
</mxfile>
